<?xml version="1.0" encoding="utf-8"?>
<!-- Generator: Adobe Illustrator 24.0.2, SVG Export Plug-In . SVG Version: 6.00 Build 0)  -->
<svg version="1.1" xmlns="http://www.w3.org/2000/svg" xmlns:xlink="http://www.w3.org/1999/xlink" x="0px" y="0px"
	 viewBox="0 0 2500 2355" style="enable-background:new 0 0 2500 2355;" xml:space="preserve">
<style type="text/css">
	.st0{fill:#1DB954;}
	.st1{fill:#191414;stroke:#000000;stroke-width:0.25;stroke-linejoin:round;stroke-miterlimit:10;}
	.st2{fill-rule:evenodd;clip-rule:evenodd;fill:#191414;stroke:#000000;stroke-width:0.25;stroke-miterlimit:10;}
	.st3{fill:#191414;stroke:#000000;stroke-width:0.25;stroke-miterlimit:10;}
</style>
<g id="Capa_1">
	<path class="st0" d="M479.5,28h1541c249.4,0,451.6,190,451.6,424.3v1448.1c0,234.4-202.2,424.3-451.6,424.3h-1541
		c-249.4,0-451.6-190-451.6-424.3V452.3C28,217.9,230.1,28,479.5,28z"/>
	<path d="M2020.5,2352.6h-1541C215.1,2352.6,0,2149.8,0,1900.4V452.3C0,202.9,215.1,0,479.5,0h1541C2284.9,0,2500,202.9,2500,452.3
		v1448.1C2500,2149.8,2284.9,2352.6,2020.5,2352.6L2020.5,2352.6z M479.5,55.9c-233.6,0-423.6,177.8-423.6,396.4v1448.1
		c0,218.6,190,396.4,423.6,396.4h1541c233.6,0,423.6-177.8,423.6-396.4V452.3c0-218.6-190-396.4-423.6-396.4H479.5z"/>
	<path class="st1" d="M657.6,200.8l680.2,1.6c142.2-1.1,248.3,21.6,318.4,68.1c85.6,56.9,128.4,154.9,128.4,293.9
		c0,228.9-106.2,358.6-318.5,389v3.2c93.6,23.3,140.9,100.8,142,232.5c0,67.5-2.5,153.9-7.6,259.2c0,70.7,14.9,131.8,44.9,183.4
		h-372.7c-17.4-18.9-26.1-57.3-26.1-115.3c7.1-97,10.7-176.6,10.7-238.7c0-125.5-60.3-188.2-180.9-188.2H835.4l-105.2,507.5H367.1
		L657.6,200.8L657.6,200.8z M1232.7,491.8H965.4l-69.7,336.9h289.2c161.7,0,243-63.8,244.1-191.4
		C1429,540.3,1363.5,491.8,1232.7,491.8L1232.7,491.8z"/>
	<g>
		<polygon class="st2" points="316.8,2049.2 253.9,2049.2 347.4,1694.3 462.6,1694.3 429.2,1946.5 430.2,1946.5 529.7,1694.3 
			642.6,1694.3 549,2049.2 478.2,2049.2 558.1,1746.1 557.1,1746.1 432,2049.2 363,2049.2 397.5,1746.1 396.6,1746.1 		"/>
		<path class="st2" d="M794.3,1948c-21.7,75.2-54.9,108.2-128.1,108.2c-96.8,0-80-71.3-68.2-116.1l64.8-245.8h78.5L673.9,1950
			c-7.5,28.4-13,49.4,7.2,49.4c21.2,0,26.8-21,34.2-49.4l67.4-255.7h78.4L794.3,1948L794.3,1948z"/>
		<path class="st2" d="M968.5,1821.3l13.1-49.7c4.6-17.4,1.9-27.4-13.7-27.4c-16.9,0-23.3,10-27.9,27.4
			c-15.8,59.8,99.6,77.2,70.7,186.9c-17.6,66.7-59.8,97.7-125.5,97.7c-50.1,0-93.9-18-77.7-79.3l17.3-65.8h78.4l-16.1,61.3
			c-5.5,21-1,27,13.6,27c12.8,0,22.5-6,28-27c21.1-80.2-98.4-81.7-68.2-196.3c17-64.4,63.5-88.7,123.9-88.7
			c52.9,0,92.8,19,77.2,78.3l-14.7,55.8L968.5,1821.3L968.5,1821.3L968.5,1821.3z"/>
		<polygon class="st2" points="1099.7,1694.3 1178.1,1694.3 1084.6,2049.2 1006.2,2049.2 		"/>
		<path class="st2" d="M1338.7,1911.1l-12.4,46.9c-17.5,66.2-59.4,98.1-125.5,98.1c-52,0-92.8-22.5-71.4-103.7L1172,1791
			c21.4-81.3,74-103.7,126-103.7c57.1,0,94.9,17.9,74.7,94.7l-10.2,38.9H1284l12.9-48.9c3.8-14.4,3.1-27.9-13.9-27.9
			c-16.1,0-23.9,13.5-27.7,27.9l-52.5,199.4c-3.8,14.4-3.1,27.9,13,27.9c17,0,24.7-13.5,28.5-27.9l16.4-60.4L1338.7,1911.1
			L1338.7,1911.1z"/>
	</g>
	<g id="layer1_1_">
		<path id="path2159_1_" class="st3" d="M1811.8,1816.7c-259.3-148.4-418.2,4-376.9,195.9c26.6,123.1,256.3,237.5,447.1,16.4
			c27.8-238.9,64.2-478.9,91.9-717.8c293.3,258.6,199.6,415,139,595.1c124.7-51.4,319.9-278.2,106.6-598.1
			c-100.9-141.7-91.5-41.6-189.2-324.3c-34.5-5.7-68.9-11.4-103.4-17.1C1885.8,1258,1852.9,1525.4,1811.8,1816.7z"/>
	</g>
</g>
<g id="Capa_2">
</g>
</svg>
